<svg version="1.0" xmlns="http://www.w3.org/2000/svg"
 width="200.000000pt" height="200.000000pt" viewBox="0 0 200.000000 200.000000"
 preserveAspectRatio="xMidYMid meet">

<g transform="translate(0.000000,200.000000) scale(0.100000,-0.100000)"
fill="#be4bdb" stroke="#be4bdb" stroke-width="19" >
<path d="M805 1940 c-377 -57 -676 -348 -741 -722 -80 -460 226 -906 691
-1005 50 -11 108 -14 205 -10 117 4 149 9 235 36 l100 32 319 -116 c175 -63
321 -114 323 -112 2 2 -69 110 -157 240 -88 130 -160 239 -160 242 0 4 22 43
50 88 98 162 136 312 127 502 -6 134 -27 217 -81 332 -113 237 -328 413 -579
473 -97 24 -248 33 -332 20z m330 -150 c107 -34 217 -95 290 -162 165 -151
246 -335 246 -558 0 -175 -50 -319 -161 -464 -29 -37 -49 -73 -47 -79 3 -7 39
-61 81 -122 41 -60 74 -110 72 -112 -1 -2 -76 24 -166 57 l-163 60 -91 -34
c-107 -40 -235 -60 -326 -51 -312 31 -569 237 -660 530 -31 100 -38 267 -15
371 64 291 285 513 579 580 89 20 271 12 361 -16z"/>
<path d="M1126 1344 c38 -85 54 -169 54 -279 0 -115 -17 -205 -53 -287 l-26
-58 44 0 c36 0 47 5 64 28 40 57 63 151 69 277 5 135 -8 205 -58 313 l-29 62
-45 0 -45 0 25 -56z"/>
<path d="M642 1217 c-69 -74 32 -184 103 -112 16 15 25 36 25 55 0 68 -83 105
-128 57z"/>
<path d="M800 1040 l0 -40 120 0 120 0 0 40 0 40 -120 0 -120 0 0 -40z"/>
<path d="M645 945 c-62 -61 0 -169 80 -139 19 8 45 55 45 84 0 28 -52 80 -80
80 -11 0 -32 -11 -45 -25z"/>
</g>
</svg>
